<svg width="636" height="830" viewBox="0 0 636 830" fill="none" xmlns="http://www.w3.org/2000/svg">
<path d="M335.547 156.546H592.517C616.171 156.546 635.345 175.691 635.345 199.307V785.134C635.345 808.751 616.171 827.895 592.517 827.895H378.375C354.723 827.895 335.547 808.751 335.547 785.134V156.546Z" fill="#1FAAAA"/>
<path d="M0 42.7611C0 19.1448 19.1749 0 42.8283 0H293.333C316.987 0 336.161 19.1448 336.161 42.7611V671.268H42.8283C19.1749 671.268 0 652.124 0 628.507V42.7611Z" fill="#FF5D3A"/>
<path d="M420.201 253.242H178.166V327.081H420.201V253.242Z" fill="black"/>
<path d="M500.88 414.347H97.4871V488.186H500.88V414.347Z" fill="black"/>
<path d="M261.252 156.078L261.252 827.427H336.202L336.202 156.078H261.252Z" fill="black"/>
</svg>
